<?xml version="1.0" standalone="no"?>
<!DOCTYPE svg PUBLIC "-//W3C//DTD SVG 20010904//EN"
 "http://www.w3.org/TR/2001/REC-SVG-20010904/DTD/svg10.dtd">
<svg version="1.0" xmlns="http://www.w3.org/2000/svg"
 width="2362.000000pt" height="2362.000000pt" viewBox="0 0 2362.000000 2362.000000"
 preserveAspectRatio="xMidYMid meet">

<g transform="translate(0.000000,2362.000000) scale(0.100000,-0.100000)"
fill="#000000" stroke="none">
<path d="M11420 21529 c-52 -5 -162 -13 -245 -19 -82 -6 -184 -15 -225 -20
-41 -5 -110 -9 -153 -9 -90 -1 -534 -63 -654 -91 -45 -11 -137 -29 -205 -40
-596 -102 -1461 -373 -2073 -650 -207 -93 -838 -418 -1020 -525 -497 -291
-1059 -704 -1533 -1129 -156 -139 -583 -564 -745 -741 -335 -367 -757 -932
-1021 -1368 -323 -533 -435 -746 -648 -1227 -164 -373 -241 -579 -384 -1040
-117 -373 -156 -528 -178 -690 -10 -69 -32 -192 -51 -275 -84 -372 -91 -421
-150 -1085 -13 -151 -29 -347 -35 -435 -13 -204 -13 -710 0 -941 17 -288 67
-734 100 -874 37 -164 37 -162 59 -330 11 -80 33 -198 50 -262 17 -64 35 -156
41 -205 15 -120 21 -142 90 -364 238 -756 290 -898 485 -1339 357 -809 793
-1514 1379 -2229 197 -240 206 -250 443 -501 302 -321 734 -717 1061 -973 367
-288 867 -621 1277 -850 314 -176 788 -400 1125 -533 233 -92 728 -263 820
-285 47 -11 119 -31 160 -44 41 -14 126 -36 188 -50 62 -13 156 -38 210 -55
183 -57 974 -184 1277 -205 55 -4 121 -11 147 -15 25 -5 142 -17 260 -27 262
-21 993 -22 1031 -1 13 7 82 15 167 19 304 13 773 68 970 113 36 8 135 27 220
41 85 14 245 48 355 75 110 27 268 65 350 85 267 65 790 247 1255 436 336 137
839 394 1235 632 125 74 548 357 675 450 708 521 1376 1158 1872 1787 315 399
712 990 848 1260 18 36 55 98 83 139 27 41 60 100 72 132 13 32 53 109 89 173
71 123 213 434 277 605 22 57 59 148 84 202 25 54 78 197 119 316 41 120 86
250 101 288 14 39 50 165 80 280 30 116 61 230 70 255 61 173 220 1003 259
1355 37 330 59 1252 37 1560 -42 588 -61 768 -100 950 -11 50 -27 149 -36 220
-9 72 -27 182 -40 245 -59 282 -89 409 -115 496 -16 51 -34 121 -40 156 -16
89 -29 133 -147 496 -107 331 -170 496 -246 649 -25 48 -62 135 -83 192 -40
109 -296 635 -404 831 -601 1090 -1481 2124 -2471 2901 -653 513 -1354 939
-2064 1254 -465 207 -1066 418 -1490 524 -202 50 -660 150 -809 176 -196 34
-787 102 -994 115 -95 5 -248 15 -341 20 -195 12 -583 11 -721 -1z m1068 -977
c160 -12 224 -20 467 -60 66 -11 180 -28 254 -36 238 -29 625 -111 946 -203
463 -131 526 -153 1010 -345 686 -274 1461 -731 2089 -1234 441 -354 955 -852
1287 -1249 216 -259 645 -856 707 -985 20 -41 64 -118 98 -170 301 -463 685
-1349 878 -2026 52 -185 157 -603 180 -719 21 -108 61 -372 80 -527 9 -70 20
-137 25 -150 5 -13 6 -38 4 -55 -3 -18 2 -97 11 -175 27 -230 34 -381 33 -758
-1 -460 -11 -753 -30 -865 -8 -49 -18 -130 -21 -180 -4 -49 -20 -184 -36 -300
-72 -501 -182 -960 -355 -1480 -229 -688 -562 -1379 -946 -1961 -76 -116 -139
-218 -139 -228 0 -10 -44 -74 -97 -144 -54 -69 -128 -165 -165 -214 -93 -123
-370 -446 -525 -613 -293 -315 -645 -645 -936 -878 -214 -171 -692 -514 -847
-609 -694 -420 -1294 -694 -2020 -923 -151 -47 -383 -113 -515 -146 -132 -33
-260 -66 -285 -74 -25 -8 -99 -21 -165 -29 -66 -8 -142 -22 -170 -30 -51 -16
-543 -76 -780 -96 -515 -43 -1270 -34 -1655 19 -41 6 -165 20 -275 31 -138 15
-222 28 -270 45 -39 13 -115 28 -169 34 -103 12 -233 38 -381 76 -49 12 -144
35 -210 50 -138 32 -701 216 -820 268 -44 19 -143 59 -220 87 -318 118 -824
367 -1205 593 -266 158 -648 421 -900 621 -436 345 -728 613 -1044 960 -423
465 -642 755 -1078 1431 -165 256 -447 826 -605 1225 -133 337 -148 377 -227
630 -153 490 -259 945 -311 1340 -14 107 -33 222 -41 255 -21 84 -46 497 -50
835 -1 157 -7 308 -12 336 -5 29 -5 76 -1 105 4 30 8 99 8 154 1 55 6 129 11
165 5 36 16 157 25 270 30 389 90 795 150 1025 18 72 50 202 70 290 122 538
391 1259 694 1862 152 302 272 506 496 843 378 570 680 936 1166 1415 457 450
784 715 1334 1081 610 405 1258 724 1963 965 196 67 554 169 749 214 87 20
214 49 283 66 146 34 427 85 555 100 50 6 126 17 170 26 107 21 216 32 417 41
91 4 170 10 174 15 11 11 983 2 1172 -11z"/>
<path d="M10660 18879 c-288 -46 -378 -67 -385 -88 -3 -10 26 -170 64 -357 39
-186 114 -553 167 -814 54 -261 103 -481 110 -489 10 -11 30 -10 126 7 273 51
532 79 813 91 192 8 221 11 232 27 9 13 13 58 13 155 0 114 -3 140 -16 154
-15 14 -36 16 -168 10 -83 -4 -227 -13 -321 -21 -339 -29 -321 -28 -328 -10
-6 14 -87 604 -147 1061 -12 88 -26 187 -33 220 -11 57 -14 60 -42 62 -16 0
-55 -3 -85 -8z"/>
<path d="M12912 18878 c-10 -13 -28 -134 -132 -893 -33 -242 -71 -516 -84
-609 -14 -92 -22 -174 -19 -182 3 -7 19 -16 36 -19 346 -55 709 -138 965 -220
110 -35 147 -44 157 -35 8 6 35 73 60 148 26 75 49 142 51 148 9 21 -438 155
-695 209 -84 18 -101 28 -101 61 0 13 59 305 130 649 72 345 130 635 130 646
0 11 -10 24 -22 29 -18 7 -438 80 -461 80 -3 0 -9 -6 -15 -12z"/>
<path d="M8363 18171 c-127 -63 -225 -117 -231 -128 -18 -33 74 -534 179 -978
87 -367 200 -768 219 -780 9 -5 307 163 344 194 15 14 17 24 11 71 -16 124
-32 104 170 207 99 51 187 92 196 93 8 0 36 -24 62 -54 25 -29 55 -56 65 -58
22 -6 374 134 380 151 11 32 -415 587 -743 969 -271 317 -367 417 -401 419
-20 1 -101 -33 -251 -106z m494 -855 c66 -68 130 -137 142 -154 l22 -31 -110
-56 c-61 -30 -112 -55 -115 -55 -6 0 -55 264 -64 348 -5 39 -5 72 -1 72 3 0
60 -56 126 -124z"/>
<path d="M15370 17963 c-34 -65 -208 -401 -387 -746 -243 -469 -323 -634 -319
-651 3 -14 25 -33 58 -51 29 -15 106 -57 171 -93 65 -35 119 -63 121 -61 9 10
886 1463 886 1468 -1 19 -416 251 -448 251 -16 0 -34 -25 -82 -117z"/>
<path d="M6577 16829 c-78 -16 -153 -37 -173 -49 -70 -44 -601 -627 -641 -704
-9 -18 -24 -101 -34 -194 -24 -212 -27 -204 128 -318 153 -113 635 -474 738
-553 134 -102 222 -122 338 -77 34 14 78 28 98 31 52 9 78 30 149 115 82 99
370 410 380 410 4 0 19 17 33 38 20 29 31 70 52 191 l27 154 -23 30 c-13 17
-132 156 -266 309 -171 194 -250 278 -264 278 -14 0 -107 -86 -271 -248 -242
-240 -250 -250 -238 -273 7 -13 31 -40 54 -59 23 -19 69 -61 103 -92 34 -32
69 -58 77 -58 8 0 42 32 77 70 34 39 68 70 75 70 18 0 234 -217 234 -235 0
-12 -267 -312 -280 -314 -8 -1 -774 658 -778 669 -4 11 180 220 276 314 l70
68 67 -71 c37 -39 75 -71 84 -71 9 1 95 76 191 169 l174 168 -18 28 c-16 25
-57 71 -168 193 -36 38 -43 42 -86 41 -26 0 -109 -14 -185 -30z"/>
<path d="M17007 16587 c-383 -195 -709 -385 -1090 -634 -117 -76 -158 -108
-155 -121 3 -15 104 -112 266 -255 49 -43 56 -43 133 5 37 24 54 29 69 22 23
-11 310 -309 310 -323 0 -6 -16 -40 -37 -77 -29 -53 -34 -71 -27 -90 12 -32
267 -343 276 -338 25 15 309 419 458 649 206 319 510 846 510 884 0 13 -55 79
-150 180 -191 203 -224 231 -268 231 -23 0 -111 -40 -295 -133z m-73 -629
c-18 -60 -174 -341 -197 -355 -8 -5 -187 174 -186 187 0 5 369 188 382 189 5
1 5 -9 1 -21z"/>
<path d="M11580 16324 c-388 -27 -658 -69 -980 -155 -1059 -282 -1974 -938
-2587 -1857 -327 -489 -551 -1023 -678 -1619 -12 -56 54 -53 -1065 -53 -704 0
-1031 -3 -1035 -10 -10 -16 -3 -24 554 -653 281 -317 511 -581 511 -585 0 -4
-44 -57 -98 -117 -517 -581 -950 -1071 -962 -1091 -12 -20 -13 -26 -2 -33 7
-4 527 -9 1155 -10 1059 -2 1143 -3 1159 -19 9 -9 37 -66 63 -127 69 -163 219
-451 318 -608 399 -638 971 -1185 1617 -1550 894 -503 1916 -688 2948 -532
967 146 1928 657 2609 1387 310 332 603 773 794 1191 97 213 101 219 148 243
l41 22 1112 -3 c612 -2 1130 -1 1151 2 21 3 37 11 37 18 0 7 -22 37 -48 67
-43 47 -974 1098 -1009 1140 -9 10 -12 22 -6 31 4 8 89 107 188 219 639 720
875 990 875 1003 0 13 -133 15 -1059 15 -922 0 -1061 2 -1074 15 -9 8 -30 76
-47 150 -238 1011 -795 1893 -1604 2539 -672 537 -1485 869 -2356 961 -141 15
-559 27 -670 19z m649 -300 c625 -65 1202 -256 1731 -571 993 -593 1724 -1591
1965 -2682 14 -63 25 -118 25 -123 0 -4 -286 -8 -636 -8 l-636 0 6 -22 c4 -13
18 -72 32 -131 112 -487 108 -978 -12 -1437 -47 -182 -129 -419 -154 -450 -11
-14 -34 -52 -50 -85 -17 -33 -39 -76 -50 -95 -11 -19 -20 -41 -20 -49 0 -8
-25 -58 -55 -112 -30 -53 -55 -100 -55 -103 0 -3 309 -7 688 -8 l687 -3 -2
-33 c-3 -65 -207 -444 -375 -697 -161 -241 -311 -427 -513 -634 -402 -412
-867 -721 -1405 -934 -879 -347 -1776 -413 -2644 -195 -1125 282 -2095 1014
-2665 2011 -88 153 -221 428 -221 455 0 13 9 22 26 26 14 4 325 6 692 6 367 0
675 -1 685 0 9 0 17 4 17 8 0 5 -34 71 -76 148 -132 241 -224 463 -289 700
-38 138 -69 323 -62 362 3 15 -1 56 -10 92 -17 73 -13 115 16 170 l20 39 -27
3 c-26 3 -27 6 -35 78 -16 157 21 519 74 723 12 45 25 101 29 125 l7 42 -659
0 -660 0 7 33 c109 534 297 992 592 1442 748 1136 1955 1840 3303 1925 178 11
527 4 709 -16z m-4948 -3935 c5 -8 9 -251 9 -541 0 -511 1 -528 19 -538 11 -5
38 -10 60 -10 l41 0 0 -123 c0 -82 -4 -127 -12 -135 -19 -19 -471 -17 -487 2
-8 9 -11 54 -9 132 l3 119 42 6 c77 10 73 -15 73 419 0 298 -3 390 -12 397 -7
6 -31 13 -52 16 -22 4 -43 10 -48 15 -4 4 -9 55 -10 114 -4 153 -11 149 204
145 132 -3 172 -7 179 -18z m855 -2 c46 -24 115 -97 136 -145 24 -52 23 -49
20 -588 l-2 -432 -32 -48 c-18 -27 -52 -63 -76 -81 -70 -53 -112 -60 -326 -55
l-188 4 -68 64 c-92 87 -100 107 -100 244 0 61 5 120 10 131 10 17 22 19 129
19 139 0 140 -1 148 -90 8 -79 22 -90 124 -90 50 0 80 4 87 13 6 7 12 58 14
114 4 143 10 139 -192 135 -139 -3 -164 -1 -202 16 -52 23 -93 69 -108 120
-13 49 -13 482 1 518 14 37 136 153 171 162 16 4 117 7 226 6 159 -1 203 -4
228 -17z m8688 -3 c14 -13 16 -58 16 -338 0 -237 3 -325 12 -334 7 -7 31 -12
55 -12 56 0 61 -14 54 -145 l-6 -99 -30 -8 c-16 -4 -42 -10 -57 -13 -27 -5
-28 -8 -28 -68 0 -73 10 -87 60 -87 56 0 60 -10 60 -141 0 -97 -3 -118 -16
-123 -28 -11 -464 -7 -485 4 -17 10 -19 22 -19 113 0 67 4 109 13 120 6 9 34
21 60 26 26 5 50 10 52 13 11 11 7 119 -5 133 -10 13 -48 15 -244 15 -128 0
-238 5 -246 10 -12 7 -15 32 -15 117 0 97 3 114 27 167 15 32 68 108 117 170
48 61 147 191 220 288 72 97 141 184 153 192 32 23 230 23 252 0z m-1009 -7
c12 -4 50 -39 85 -79 l65 -72 6 -171 c4 -122 2 -179 -7 -202 -14 -35 -29 -48
-312 -256 -178 -131 -203 -152 -212 -185 -14 -51 -13 -85 4 -107 12 -17 30
-20 125 -23 136 -5 141 -2 141 82 0 33 4 67 9 74 6 10 38 14 118 15 60 0 115
-3 121 -7 17 -10 17 -407 0 -424 -14 -14 -744 -17 -767 -3 -11 7 -14 58 -16
252 -2 143 1 258 7 277 8 27 51 64 258 217 189 141 251 193 261 217 15 37 16
105 2 119 -5 5 -64 8 -134 7 l-124 -3 -3 -70 c-2 -51 -7 -73 -19 -82 -27 -20
-217 -18 -234 3 -9 11 -13 49 -13 122 -1 97 2 112 26 157 31 60 104 133 141
143 33 9 445 8 472 -1z"/>
<path d="M7807 11805 c-30 -30 -33 -219 -4 -237 20 -13 181 -10 195 4 8 8 12
49 12 118 0 69 -4 110 -12 118 -18 18 -173 16 -191 -3z"/>
<path d="M16513 11523 c-28 -28 -59 -65 -67 -82 l-16 -30 34 -7 c51 -9 95 4
102 30 3 12 4 49 2 81 l-3 60 -52 -52z"/>
<path d="M6643 8637 c-200 -211 -1023 -1337 -1023 -1399 0 -21 25 -57 108
-150 145 -165 232 -257 254 -269 24 -13 15 -17 361 178 147 84 276 155 287
158 21 7 26 -4 11 -20 -5 -6 -79 -148 -165 -317 -110 -215 -156 -314 -151
-328 12 -36 379 -350 411 -350 80 -1 1384 1046 1384 1111 0 5 -51 47 -112 93
-62 46 -133 100 -158 120 -25 20 -54 36 -66 36 -12 0 -59 -29 -106 -64 -253
-191 -470 -346 -484 -346 -15 0 25 80 281 572 l40 78 -150 150 c-82 82 -157
150 -167 150 -15 0 -156 -77 -403 -219 -88 -50 -245 -131 -245 -126 0 22 195
315 371 558 16 22 29 49 29 61 0 12 -32 59 -71 106 -39 47 -95 117 -124 155
-75 101 -76 101 -112 62z"/>
<path d="M16881 8638 c-10 -13 -47 -59 -82 -103 -35 -44 -82 -101 -106 -127
-33 -36 -43 -55 -43 -81 0 -36 17 -57 106 -124 93 -71 384 -326 384 -337 0
-13 -162 -196 -247 -279 l-59 -57 -243 235 c-220 213 -244 234 -261 222 -53
-37 -290 -271 -290 -286 0 -10 12 -28 26 -42 14 -13 267 -295 562 -626 295
-332 543 -603 552 -603 18 0 374 329 384 356 5 13 -48 72 -230 255 -130 130
-235 242 -233 248 8 21 303 341 315 341 14 0 41 -22 318 -258 105 -89 196
-162 204 -162 17 0 22 6 201 233 78 98 141 185 141 193 0 8 -125 108 -277 221
-153 114 -454 338 -670 499 -215 161 -401 295 -412 299 -14 4 -26 -1 -40 -17z"/>
<path d="M15855 7461 l-121 -6 -64 -47 c-36 -26 -103 -77 -150 -113 -47 -36
-125 -89 -173 -116 -156 -90 -240 -187 -292 -336 -35 -99 -33 -124 23 -223 27
-47 162 -287 302 -535 139 -247 258 -458 264 -468 22 -35 67 -44 233 -50 l162
-6 118 75 c280 179 636 441 657 482 20 41 118 341 114 351 -5 15 -163 203
-200 238 l-33 31 -187 -149 c-117 -93 -188 -157 -188 -168 0 -10 25 -51 55
-91 30 -40 55 -76 55 -80 0 -4 -64 -52 -142 -107 -79 -55 -163 -114 -188 -132
-29 -20 -52 -30 -62 -26 -10 4 -65 79 -123 167 -258 390 -435 667 -435 681 0
14 284 217 324 233 10 4 32 -17 68 -65 29 -39 60 -74 70 -77 21 -6 16 -10 201
140 103 82 147 125 147 139 0 11 -26 50 -58 86 -32 36 -74 86 -93 110 -42 53
-76 72 -126 69 -21 -1 -92 -4 -158 -7z"/>
<path d="M8205 7154 c-16 -16 -231 -333 -673 -993 -206 -307 -269 -407 -263
-420 11 -19 230 -159 462 -296 194 -114 713 -375 744 -375 13 0 27 6 32 13 12
14 123 267 123 279 0 4 -79 46 -176 93 -229 110 -526 270 -549 295 -17 19 -15
23 58 147 41 70 83 132 91 138 12 7 30 3 69 -18 203 -111 297 -157 315 -157
18 0 34 24 89 135 55 109 66 139 57 153 -6 9 -51 39 -100 66 -154 84 -244 140
-244 150 1 20 145 259 163 270 14 9 28 5 70 -17 338 -184 563 -290 586 -277
15 8 131 262 131 287 0 7 -87 55 -192 106 -207 100 -429 224 -623 347 -143 91
-150 94 -170 74z"/>
<path d="M14625 6757 c-126 -65 -161 -87 -163 -104 -3 -19 158 -378 476 -1061
58 -126 73 -168 66 -180 -6 -9 -88 -49 -183 -88 -231 -97 -227 -96 -243 -77
-7 9 -119 290 -249 626 -141 367 -242 615 -252 621 -14 9 -46 1 -145 -33 -203
-70 -232 -81 -232 -97 0 -18 440 -1426 449 -1436 3 -4 85 -28 181 -54 l175
-46 150 56 c215 81 567 234 639 277 71 42 115 96 180 219 35 66 46 98 46 132
0 51 5 39 -182 383 -75 138 -215 396 -312 575 -193 360 -200 370 -224 370 -9
-1 -89 -38 -177 -83z"/>
<path d="M9292 6563 c-8 -15 -434 -1021 -601 -1418 -44 -105 -48 -123 -37
-140 23 -35 448 -198 466 -179 5 5 72 191 150 414 78 223 200 571 272 775 71
203 132 381 135 395 3 15 -1 31 -9 37 -17 14 -333 133 -352 133 -9 0 -19 -8
-24 -17z"/>
<path d="M9803 6385 c-15 -11 -85 -197 -99 -267 -8 -37 14 -49 186 -98 183
-51 190 -54 190 -82 0 -13 -24 -117 -54 -233 -30 -115 -102 -395 -160 -621
-58 -227 -106 -423 -106 -437 0 -20 7 -28 33 -36 30 -9 437 -101 449 -101 11
0 19 36 143 678 80 414 131 652 140 661 13 13 31 13 152 -7 217 -34 239 -36
249 -21 4 7 15 76 25 154 17 139 14 175 -14 175 -34 0 -295 45 -467 80 -170
35 -341 78 -582 149 -56 16 -70 17 -85 6z"/>
<path d="M13135 6239 c-127 -34 -307 -67 -515 -94 -112 -15 -206 -28 -208 -30
-10 -9 0 -156 27 -405 27 -250 83 -812 112 -1130 12 -139 24 -170 67 -170 68
1 426 51 439 62 18 15 15 46 -33 341 -18 117 -37 240 -40 274 l-7 61 39 11
c60 17 81 13 104 -16 12 -16 98 -140 191 -278 179 -264 212 -305 241 -305 31
0 467 112 482 124 12 9 -19 54 -181 266 -107 140 -206 272 -220 292 -30 44
-37 28 86 178 62 76 84 111 88 139 4 27 -9 81 -45 197 -28 87 -62 202 -77 254
-15 52 -37 109 -50 126 -27 35 -117 85 -194 108 -74 22 -217 20 -306 -5z m163
-476 c18 -82 32 -158 32 -170 0 -26 4 -25 -190 -63 -161 -31 -215 -36 -224
-21 -3 5 -17 75 -31 157 -18 103 -23 150 -15 158 9 9 338 83 381 85 12 1 22
-31 47 -146z"/>
<path d="M11091 6106 c-7 -8 -15 -32 -17 -53 -23 -199 -76 -688 -171 -1575 -4
-44 -3 -59 8 -63 75 -27 1059 -64 1167 -43 61 11 110 40 225 132 88 72 100 87
99 126 -3 101 -26 406 -34 434 -12 47 -45 80 -126 125 -34 19 -62 40 -62 47 0
7 34 43 75 80 42 37 78 78 81 90 8 31 -25 462 -37 494 -8 23 -42 49 -205 161
l-53 37 -403 6 c-222 4 -433 9 -469 12 -51 4 -68 2 -78 -10z m786 -372 c16
-22 18 -285 3 -315 -10 -18 -23 -19 -203 -19 -137 0 -196 3 -205 12 -24 24 -7
313 20 332 10 7 80 10 193 9 159 -1 180 -3 192 -19z m6 -686 c14 -11 17 -36
18 -165 0 -84 -2 -157 -6 -162 -10 -17 -449 -15 -463 2 -13 16 5 306 20 325 8
9 63 12 212 12 146 0 207 -3 219 -12z"/>
</g>
</svg>
